<svg id="b7a8963c-9360-460e-8b7f-3b62df5e2710" data-name="Logos" xmlns="http://www.w3.org/2000/svg" viewBox="0 0 300 300"><defs><style>.a07b13ab-bce7-4199-8b3f-3be03eec7400{fill:#009cdb;}</style></defs><title>PartnerLogos-Vector</title><path id="f8f69424-1d01-400b-9310-ba08c9702304" data-name="colorgroup1" class="a07b13ab-bce7-4199-8b3f-3be03eec7400" d="M150,66.79A83.21,83.21,0,1,0,233.21,150h0A83.22,83.22,0,0,0,150,66.79m0,159.1A75.89,75.89,0,1,1,225.9,150,75.89,75.89,0,0,1,150,225.89m59.93-92.44a61,61,0,0,1-6.26,48,62.22,62.22,0,0,1-27.37,24.92l-5.57-21.23c12.49-5.89,21.56-17.82,21.56-33.21a39.14,39.14,0,0,0-6.54-21.78l-26,40.7H140.38l-26-40.7a39,39,0,0,0-6.54,21.78c0,15.39,9,27.32,21.5,33.21l-5.57,21.23A62.19,62.19,0,0,1,96.4,181.41a61,61,0,0,1-6.24-47.94c6.7-25,27.46-36.42,27.46-36.42l2.27,3.57,30.16,47.2,30.11-47.13L182.48,97s20.76,11.43,27.46,36.42h0"/></svg>